<svg width="800" height="600" viewBox="0 0 800 600" fill="none" xmlns="http://www.w3.org/2000/svg">
  <rect width="800" height="600" rx="8" fill="#F8FAFC"/>
  
  <!-- Dashboard Background -->
  <rect x="40" y="40" width="720" height="520" rx="6" fill="white" stroke="#E2E8F0" stroke-width="2"/>
  
  <!-- Header -->
  <rect x="40" y="40" width="720" height="60" rx="6" fill="#F1F5F9"/>
  <rect x="60" y="60" width="180" height="20" rx="4" fill="#94A3B8"/>
  <circle cx="700" cy="70" r="20" fill="#E2E8F0"/>
  
  <!-- Sidebar -->
  <rect x="40" y="100" width="180" height="460" fill="#F8FAFC"/>
  <rect x="60" y="130" width="140" height="10" rx="2" fill="#CBD5E1"/>
  <rect x="60" y="160" width="140" height="10" rx="2" fill="#CBD5E1"/>
  <rect x="60" y="190" width="140" height="10" rx="2" fill="#CBD5E1"/>
  <rect x="60" y="220" width="140" height="10" rx="2" fill="#CBD5E1"/>
  <rect x="60" y="250" width="140" height="10" rx="2" fill="#CBD5E1"/>
  
  <!-- Main Content -->
  <rect x="240" y="120" width="500" height="40" rx="4" fill="#E2E8F0"/>
  
  <!-- Cards -->
  <rect x="240" y="180" width="230" height="120" rx="6" fill="white" stroke="#E2E8F0" stroke-width="2"/>
  <rect x="260" y="200" width="100" height="12" rx="2" fill="#94A3B8"/>
  <rect x="260" y="230" width="60" height="30" rx="4" fill="#3B82F6"/>
  
  <rect x="490" y="180" width="230" height="120" rx="6" fill="white" stroke="#E2E8F0" stroke-width="2"/>
  <rect x="510" y="200" width="100" height="12" rx="2" fill="#94A3B8"/>
  <rect x="510" y="230" width="60" height="30" rx="4" fill="#3B82F6"/>
  
  <!-- Table -->
  <rect x="240" y="320" width="500" height="220" rx="6" fill="white" stroke="#E2E8F0" stroke-width="2"/>
  <rect x="240" y="320" width="500" height="40" rx="6" fill="#F1F5F9"/>
  <rect x="260" y="335" width="80" height="10" rx="2" fill="#94A3B8"/>
  <rect x="360" y="335" width="80" height="10" rx="2" fill="#94A3B8"/>
  <rect x="460" y="335" width="80" height="10" rx="2" fill="#94A3B8"/>
  <rect x="560" y="335" width="80" height="10" rx="2" fill="#94A3B8"/>
  
  <!-- Table Rows -->
  <rect x="240" y="360" width="500" height="1" fill="#E2E8F0"/>
  <rect x="260" y="380" width="120" height="10" rx="2" fill="#E2E8F0"/>
  <rect x="360" y="380" width="80" height="10" rx="2" fill="#E2E8F0"/>
  <rect x="460" y="380" width="80" height="10" rx="2" fill="#E2E8F0"/>
  <rect x="560" y="380" width="60" height="20" rx="4" fill="#3B82F6"/>
  
  <rect x="240" y="410" width="500" height="1" fill="#E2E8F0"/>
  <rect x="260" y="430" width="120" height="10" rx="2" fill="#E2E8F0"/>
  <rect x="360" y="430" width="80" height="10" rx="2" fill="#E2E8F0"/>
  <rect x="460" y="430" width="80" height="10" rx="2" fill="#E2E8F0"/>
  <rect x="560" y="430" width="60" height="20" rx="4" fill="#10B981"/>
  
  <rect x="240" y="460" width="500" height="1" fill="#E2E8F0"/>
  <rect x="260" y="480" width="120" height="10" rx="2" fill="#E2E8F0"/>
  <rect x="360" y="480" width="80" height="10" rx="2" fill="#E2E8F0"/>
  <rect x="460" y="480" width="80" height="10" rx="2" fill="#E2E8F0"/>
  <rect x="560" y="480" width="60" height="20" rx="4" fill="#F59E0B"/>
  
  <text x="400" y="290" font-family="Arial" font-size="16" fill="#94A3B8" text-anchor="middle">Rawk AI Analytics Dashboard</text>
</svg> 